# xmcd
#
# Track frame offsets: 
#        150
#        20445
#        36312
#        57587
#        78460
#        94642
#
# Disc length: 1530 seconds
#
# Revision: 2
# Processed by: cddbd v1.5.1PL0 Copyright (c) Steve Scherf et al.
# Submitted via: ExactAudioCopy v0.95a5
#
DISCID=4605f806
DTITLE=Graham Parker - Graham Parker's Christmas Cracker
DYEAR=1994
DGENRE=Christmas/Holiday
TTITLE0=Christmas Is For Mugs
TTITLE1=New Year's Revolution
TTITLE2=Soul Christmas (with Nona Hendryx)
TTITLE3=Christmas Is For Mugs (Demo)
TTITLE4=New Year's Revolution (Demo)
TTITLE5=Soul Christmas (Demo)
EXTD=Demon Records GPCD-3\n1994\n
EXTT0=
EXTT1=
EXTT2=W/NONA HENDRYX\n
EXTT3=DEMO
EXTT4=DEMO
EXTT5=DEMO\n
PLAYORDER=
